<?xml version="1.0" standalone="no"?>
<!DOCTYPE svg PUBLIC "-//W3C//DTD SVG 20010904//EN"
 "http://www.w3.org/TR/2001/REC-SVG-20010904/DTD/svg10.dtd">
<svg version="1.0" xmlns="http://www.w3.org/2000/svg"
 width="700.000000pt" height="700.000000pt" viewBox="0 0 700.000000 700.000000"
 preserveAspectRatio="xMidYMid meet">
<metadata>
Created by potrace 1.14, written by Peter Selinger 2001-2017
</metadata>
<g transform="translate(0.000000,700.000000) scale(0.100000,-0.100000)"
fill="#000000" stroke="none">
<path d="M2 3881 c3 -2247 4 -2350 21 -2369 10 -11 55 -33 100 -50 80 -29 526
-153 677 -187 140 -32 474 -115 610 -151 74 -20 140 -37 145 -38 36 -10 83
-22 180 -48 61 -16 153 -38 205 -48 52 -10 158 -34 235 -53 118 -30 552 -128
635 -144 14 -2 79 -17 145 -33 136 -33 184 -41 186 -32 1 4 3 171 4 372 2 201
7 379 11 395 4 17 9 478 11 1025 l4 995 -491 0 c-486 -1 -490 -1 -491 20 -3
98 1 638 5 643 3 3 185 6 403 7 338 2 407 5 458 19 32 9 61 19 63 21 3 2 14
35 25 72 20 64 21 94 24 528 3 479 -2 540 -41 600 -30 46 -96 70 -441 161
-155 40 -289 76 -470 124 -66 18 -131 34 -145 36 -14 2 -43 8 -65 13 -22 6
-83 20 -135 31 -52 12 -153 38 -225 57 -71 19 -137 36 -146 38 -9 2 -103 26
-208 54 -164 43 -348 85 -466 105 -16 3 -122 28 -235 56 -209 51 -560 130
-580 130 -7 0 -9 -698 -8 -2349z"/>
<path d="M6890 6209 c-74 -19 -609 -144 -765 -180 -44 -10 -104 -20 -133 -24
-29 -3 -130 -26 -225 -51 -95 -25 -179 -48 -187 -50 -8 -2 -129 -33 -268 -69
-139 -35 -263 -67 -275 -69 -12 -3 -31 -7 -42 -10 -11 -2 -51 -12 -90 -21
-171 -39 -324 -77 -370 -90 -79 -23 -427 -114 -460 -120 -16 -3 -45 -8 -64
-11 -49 -8 -100 -19 -141 -30 -13 -3 -15 -84 -15 -652 l0 -648 468 0 c258 1
473 -2 479 -5 8 -5 13 -421 9 -642 l-1 -23 -372 1 c-326 0 -454 -5 -533 -20
-11 -2 -33 -4 -48 -4 l-29 -1 5 -252 c3 -139 9 -273 13 -298 4 -25 8 -531 8
-1125 0 -643 4 -1083 10 -1086 10 -8 56 -2 101 11 17 5 50 12 75 15 57 8 108
16 129 20 77 15 316 73 399 96 56 16 151 41 210 55 59 14 114 27 122 29 45 11
239 55 265 59 45 8 90 19 377 97 264 71 312 84 358 93 31 6 34 7 200 46 74 17
142 33 150 35 84 18 436 117 580 162 79 25 123 45 142 64 l28 27 0 2346 c0
2230 -1 2346 -17 2345 -10 -1 -52 -10 -93 -20z"/>
</g>
</svg>
